<svg version="1" xmlns="http://www.w3.org/2000/svg" width="346.667" height="346.667" viewBox="0 0 260.000000 260.000000"><path d="M21 130.5V221h14.7l-.1-80.5c-.1-44.3.1-80.5.4-80.5.3 0 1.9 1.2 3.5 2.8 1.7 1.5 5.9 5.2 9.5 8.2 3.6 3 6.7 5.7 7 6 .3.3 3.4 3 7 6s6.7 5.7 7 6c.3.3 6.6 5.7 14 12s14 11.9 14.6 12.5c.6.5 6.4 5.5 12.9 11s13 11 14.3 12.3c1.4 1.2 4.8 4.1 7.5 6.5 2.8 2.3 12.1 10.2 20.6 17.6 20.9 17.9 19.7 16.9 27.1 23.1 3.6 3 6.7 5.7 7 6 .3.3 3.4 3 7 6s8 6.8 9.8 8.5c1.9 1.6 3.7 2.8 4 2.5.4-.3.7-4.3.7-9 .1-9.4.4-8.9-10.2-18-8.5-7.3-15.1-12.9-23.3-20-4.7-3.9-9.6-8.2-11-9.3-1.4-1.2-7-6-12.5-10.7-11.2-9.5-15.3-13-16.9-14.5-.6-.6-4-3.5-7.6-6.5-3.6-3-6.7-5.7-7-6-.3-.3-5-4.3-10.5-9S99.4 94.5 98 93.3c-2.8-2.4-4-3.5-12.6-10.8-3.2-2.8-7.9-6.8-10.4-9s-7-6-10-8.5c-2.9-2.5-5.8-5-6.4-5.5-.6-.6-4.7-4.1-9.1-7.9-4.4-3.7-9.2-7.9-10.7-9.2C36.4 40.3 35 40 28.5 40H21v90.5z"/><path d="M216 47.1c-4.7 3.9-9.8 8.3-11.5 9.8-1.6 1.4-7.9 6.8-14 12-6 5.1-12.4 10.5-14 12-2.6 2.2-8.6 7.4-25.9 22.1-1.6 1.4-4.3 3.7-6 5.2l-3.1 2.7 4.4 3.8c7.4 6.4 7.2 6.4 14.7-.4 1.7-1.5 5.5-4.8 8.4-7.3 2.9-2.5 5.8-5 6.4-5.5.6-.6 7.2-6.2 14.6-12.5 7.4-6.3 13.7-11.7 14-12 .3-.3 3.4-3 7-6s7.8-6.7 9.5-8.2c1.6-1.5 3.1-2.5 3.4-2.3.2.3.4 36.5.4 80.5v80H239V40h-14.6l-8.4 7.1zM106.1 141.5c0 .5.4 1.9.8 2.9.7 1.9.8 1.9 1.3-.2.4-1.2.2-2-.2-1.7-.5.3-1.1-.1-1.3-.7-.3-.7-.5-.9-.6-.3zM102.3 145.8c-1.3 1.4-2.3 2.9-2.3 3.3 0 .5-.8.6-1.7.2-1.4-.5-1.6-.3-.6.7 1 1.1 1.8.7 4.3-2 1.7-1.8 2.9-3.6 2.8-4-.2-.4-1.3.4-2.5 1.8zM109.7 144.7c-.4.3-.7 1.1-.7 1.7 0 .6.5.5 1.2-.2.6-.6.9-1.4.7-1.7-.3-.3-.9-.2-1.2.2zM104 148c-.8.5-1.2 1.1-1 1.4.3.2 1.4-.2 2.4-1 2.2-1.5 1-1.9-1.4-.4zM111.5 149.6c.1 1.4.8 3.1 1.4 3.7.9.9 1.1.8.6-.6-.4-1-.2-1.7.4-1.7.6 0 1.1-.5 1.1-1.1 0-.8-.6-.7-1.6.2-1.5 1.2-1.6 1.1-1-.9.4-1.2.3-2.2-.2-2.2-.6 0-.9 1.2-.7 2.6zM106.8 149.1c-1.1.6-1.5 1.6-1.1 2.6.4 1 .2 1.4-.4 1-.5-.4-1.9 0-2.9.8s-1.4 1.5-.7 1.5c.6 0 1.5-.4 1.8-1 .4-.6 1.3-.5 2.5.2 1 .7 1.7 1.6 1.4 2-.3.4.3.5 1.2.1 1.1-.4 1.3-.8.6-1.1-.7-.2-1-.8-.7-1.3.4-.5 0-.6-.7-.4-.9.4-1.4-.2-1.4-1.5 0-2.7 1-2.5 3.6.7 1.5 2 1.8 2.2 1 .6-.5-1.2-1.5-2.5-2.1-2.9-.8-.4-.7-.9.2-1.5 1.9-1.2-.2-1.1-2.3.2zM94 152c-.8.5-1 1-.5 1 .6 0 1.7-.5 2.5-1s1.1-1 .5-1c-.5 0-1.7.5-2.5 1zM100.5 152c-.3.6.1.7.9.4 1.8-.7 2.1-1.4.7-1.4-.6 0-1.3.4-1.6 1zM96.4 153.5c-1.2.8-2.4 1.2-2.6.9-.3-.2-.5.6-.4 1.8.1 1.7.6 2.2 2.1 2 1.5-.3 1.7-.1.7 1-.8 1.1-.7 1.7.9 2.6 1 .7 1.9.8 1.9.3s-.5-1.1-1.2-1.3c-.7-.3-.5-1.3.7-3.1 1-1.5 1.5-3 1.1-3.4-.3-.3-.6-.1-.6.6s-.4.9-1 .6c-.5-.3-.7 0-.5.7.4.9-.2 1.4-1.5 1.4-2.7 0-2.5-1 .8-3.5 3.1-2.3 2.7-2.9-.4-.6zM90.6 155.5c-.9 2.6-.7 3.2.5 1.2.6-1 .9-2.1.6-2.3-.2-.3-.7.2-1.1 1.1z"/><path d="M103.1 155.9c-1.1.7-.9 1 .8 1.6 1.2.3 1.9 1 1.6 1.5-.3.5-1.3.7-2.3.4-1.4-.5-1.4-.3.2.6 2.4 1.6 4.4-.9 2.1-2.6-.8-.6-1.2-1.4-.8-1.7.9-1 .1-.8-1.6.2zM99.7 158.3c-.3.8-.2 2 .3 2.6.5.9.8.4.8-1.3 0-2.9-.3-3.2-1.1-1.3zM85.5 158.9c-.7 1.2 1.2 2.4 2.4 1.6.5-.3 1.2-.1 1.5.4.4.5-.3 1.3-1.5 1.6-1.1.4-1.8.9-1.6 1.2.3.2 1.5 0 2.6-.6 2.6-1.5 1.7-4.4-1.1-3.5-1.4.4-1.8.2-1.4-.5.4-.6.5-1.1.2-1.1s-.7.4-1.1.9zM91.5 160c.3.5 1.1 1 1.6 1 .6 0 .7-.5.4-1-.3-.6-1.1-1-1.6-1-.6 0-.7.4-.4 1zM83.6 162.5c-.3.9-.6 2.2-.5 2.8 0 .7.5.1 1-1.2s.8-2.6.5-2.8c-.2-.2-.6.3-1 1.2zM91.4 163.1c-.3.6-.2 1.5.3 2s.9.1.9-1.1c0-2.3-.2-2.4-1.2-.9zM94.2 164c0 1.4.2 1.9.5 1.2.2-.6.2-1.8 0-2.5-.3-.6-.5-.1-.5 1.3zM99.5 164c-1.3.6-1.5.9-.5.9.8 0 2.2-.4 3-.9 1.8-1.2.2-1.2-2.5 0zM78.9 166.9c.7 1.2 1.7 1.8 2.7 1.4 1.7-.6 1.7-.6-1.4-2.2-2.2-1.2-2.3-1.1-1.3.8zM85.6 166.1c.3.5 1.5.7 2.6.3 2-.6 2-.5.4 1.7-.9 1.3-1.6 2.8-1.6 3.4.1.9 2.3-2.7 3.2-5 .1-.5-.9-1.1-2.5-1.2-1.6-.1-2.5.2-2.1.8zM95.6 166.6c-.4.9-.4 1.9-.1 2.2.3.3.5 0 .5-.7s.4-.9 1-.6c.6.3.7-.1.4-.9-.8-2-1-2-1.8 0z"/><path d="M84.7 168.1c.7.7 1.5 1 1.8.7.3-.3-.2-.9-1.2-1.2-1.4-.6-1.5-.5-.6.5zM91.5 168.1c-.8 1.2 0 2.2 2 2.5.8.1 1.3-.2.9-.7-.3-.5-1-.7-1.5-.4-.5.4-.9.2-.9-.4 0-.5.6-1.2 1.3-1.4.9-.4.9-.6 0-.6-.6-.1-1.5.4-1.8 1zM74 168.9c0 .6.4 1.3 1 1.6.6.3.7-.1.4-.9-.7-1.8-1.4-2.1-1.4-.7z"/><path d="M76.9 171.4c-1.2 2.6-3.1 3.6-2.6 1.3.1-.6-.4-1.2-1.2-1.2-.8 0-1.5.6-1.7 1.3-.1.7 0 .8.3.2.6-1.4 2.4-1.3 2.1.1-.2.6.2 1.3.8 1.6 1.2.4 4.9-4.5 4-5.4-.3-.3-1.1.6-1.7 2.1zM81.9 169.7c-.1.5-.1 1.1 0 1.5 0 .5-.6.8-1.4.8-1.8 0-2 1.6-.3 2.6.6.4.8.3.5-.3-1.1-1.8 1.9-2.2 4.2-.7 1.2.9 2.1 1.1 2.1.5 0-.6-.4-1.1-.9-1.1s-1.1-.9-1.4-2c-.5-1.9-2.6-2.8-2.8-1.3zM84 171c0 .5-.2 1-.4 1-.3 0-.8-.5-1.1-1-.3-.6-.1-1 .4-1 .6 0 1.1.4 1.1 1zM89 171.4c0 .2.7.7 1.6 1 .8.3 1.2.2.9-.4-.6-1-2.5-1.4-2.5-.6zM67.4 175.1c-.3.6-.3 1.3 0 1.6.3.4.6.1.6-.4 0-.6 1.4.1 3 1.5 3.5 3.1 3.7 3.8 1 3.8-1.3 0-1.9-.5-1.5-1.4.2-.7 0-1-.5-.7-.6.3-1 .1-1-.6s-.3-1-.6-.7c-.3.4 0 1.7.7 3 1.3 2.2 1.9 4.2 2.1 6.4.1.6.7 1.1 1.5 1.1.9 0 1-.4.2-1.3-.5-.6-1.2-2.2-1.4-3.4-.3-1.6 0-2 1-1.6 1.5.5 4.2-3.1 3.1-4.2-.3-.3-.6 0-.6.7 0 .8-.8.6-2.4-.6-1.3-1-2.2-2.1-2-2.4.2-.4-.3-.9-1.1-1.3-.8-.3-1.7-.1-2.1.5z"/><path d="M82.2 176c0 1.4.2 1.9.5 1.2.2-.6.2-1.8 0-2.5-.3-.6-.5-.1-.5 1.3zM72.7 176.1c.7.7 1.5 1 1.8.7.3-.3-.2-.9-1.2-1.2-1.4-.6-1.5-.5-.6.5zM76.5 176c-.4.6.1.7 1.2.3 1.6-.6 1.6-.5.4 1-.9 1.1-1 1.7-.2 1.7.6 0 1.1-.5 1.1-1.1 0-.5.6-.7 1.3-.3.8.5.8.2-.2-.9-1.5-1.9-2.7-2.2-3.6-.7zM64.5 177.7c.6.4 1.1 1.6 1.3 2.5.2 1.3-.2 1.6-1.5 1.2-1.3-.4-1.5-.3-.5.4 1.1.7.9 1-.8 1.5-1.2.3-1.9 1-1.6 1.5.3.5-.6 1.4-1.9 2-2.7 1.2-3.2 2.7-1.3 3.8.7.5.9.2.5-.8-.3-1 .3-1.9 2-2.7 1.4-.7 2.3-1.5 1.9-1.8-.3-.3.4-1.1 1.7-1.7 2.5-1.3 3-5.7.7-6.3-.9-.3-1.1-.1-.5.4zM83.6 178.7c-.6 1.4-.5 1.5.5.6.7-.7 1-1.5.7-1.8-.3-.3-.9.2-1.2 1.2z"/><path d="M61.4 180.5c-.4.8-1.1 1.2-1.8.8-.6-.3-.8-.3-.4.2.4.4.3 1.4-.3 2.2-.6.7-.7 1.3-.2 1.3.5 0 1.7-1.4 2.6-3 1-1.7 1.5-3 1.2-3-.3 0-.8.7-1.1 1.5zM79 180c-.8.5-1 1-.5 1 .6 0 1.7-.5 2.5-1s1.1-1 .5-1c-.5 0-1.7.5-2.5 1zM75.6 182.7c-.6 1.4-.5 1.5.5.6.7-.7 1-1.5.7-1.8-.3-.3-.9.2-1.2 1.2zM77.9 183.7c-1.3 1.6-1.2 1.7.4.4.9-.7 1.7-1.5 1.7-1.7 0-.8-.8-.3-2.1 1.3zM66 184.5c-1 1.2-.9 1.6.4 2.1.9.3 1.3 1 1 1.5-.3.5.3.6 1.2.2 1.1-.4 1.3-.8.6-1.1-.7-.2-1-.8-.7-1.3.4-.5-.2-.6-1.2-.3-1.6.5-1.6.4.1-1 1.1-.9 1.5-1.6.9-1.6s-1.6.7-2.3 1.5zM73.1 184.7c-.1 1.7 1.6 2.5 2.5 1.2.4-.7.3-.9-.4-.5-.5.3-1.3 0-1.5-.6-.4-.9-.6-1-.6-.1zM55.2 187c-.9 1.5-.8 2.3.9 4.2l2.1 2.3-1.6-2.4c-1.2-1.8-1.3-2.8-.4-3.8.6-.7.9-1.5.7-1.8-.3-.2-1 .4-1.7 1.5zM62.1 187.9c-1.2.8-.9 1.1 1.2 1.6 1.5.4 2.4 1.1 2.1 1.7-.3.5-1.3.7-2.3.4-1.2-.5-1.1-.2.3.9 1.1.8 2.5 1.5 3 1.5.6 0 .4-.5-.4-1-1.4-.9-.7-1.5 1.4-1.1.5.1.4-.5-.4-1.3-.7-.9-2-1.6-2.9-1.6-1.4 0-1.4-.2-.1-1 .8-.5 1.1-1 .5-1-.5 0-1.7.4-2.4.9zM51.6 189.8c-.8 1.4 4.4 7.2 6 6.5 1.2-.4 1.2-.7-.3-1.8-1-.7-2.1-1.1-2.5-.9-.5.3-.8-.2-.8-1 0-.9-.5-1.6-1.1-1.6-.5 0-.7-.5-.4-1 .3-.6.4-1 .1-1-.3 0-.7.4-1 .8zM69 190c0 .5.5 1 1.1 1 .5 0 .7-.5.4-1-.3-.6-.8-1-1.1-1-.2 0-.4.4-.4 1zM59.6 191.5c-.9 2.6-.7 3.2.5 1.2.6-1 .9-2.1.6-2.3-.2-.3-.7.2-1.1 1.1zM61.3 194.2c.3 1-.3 1.9-1.9 2.6-1.5.8-2.2 1.7-1.8 2.7.3.8.8 1.5 1.1 1.5.3 0 .2-.7-.1-1.6-.5-1.2-.2-1.5.9-1 1.1.4 1.4.2.9-.6-.5-.7-.2-.9.7-.6 1.8.7 2.4-2.8.7-3.8-.7-.5-.9-.2-.5.8zM51 196c0 .5.3.9.8.9 1.9-.3 2.6.2 1.3 1-.8.5-1.6 1.7-1.7 2.5-.1.9.2 1.4.7 1 .5-.3.7-.9.4-1.4-.3-.4.2-1.1 1.1-1.4 1.3-.5 1.4-.9.4-2.1-1.4-1.7-3-2-3-.5zM55.2 199.5c.4.4.1 1.3-.7 1.9-1.1.8-1.2 1.5-.4 2.6.9 1.3 1 1.2.5-.3-.3-1.1 0-1.7.9-1.7 1.8 0 2-1.6.3-2.6-.7-.4-1-.4-.6.1zM51.3 204.9c0 1.1.5 1.8.9 1.5.4-.3.5-1.1.1-1.9-.7-2.1-1.2-1.9-1 .4z"/></svg>